<svg width="122" height="122" viewBox="0 0 122 122" fill="none" xmlns="http://www.w3.org/2000/svg">
<g id="achievement-1">
<path id="Vector" d="M109.425 97.3425L109.652 95.8597L109.652 95.8597L109.425 97.3425ZM92.9124 94.8186L92.6857 96.3013L92.6858 96.3013L92.9124 94.8186ZM92.4113 95.0522L91.1298 94.2727L91.1298 94.2727L92.4113 95.0522ZM83.7304 109.324L82.4488 108.545L83.7304 109.324ZM82.8529 109.276L84.2124 108.642L84.2124 108.642L82.8529 109.276ZM109.952 96.6392L111.312 96.0053V96.0053L109.952 96.6392ZM12.5746 97.3425L12.3479 95.8597L12.3479 95.8597L12.5746 97.3425ZM29.0876 94.8186L29.3143 96.3013L29.3143 96.3013L29.0876 94.8186ZM29.5887 95.0522L28.3071 95.8317L28.3071 95.8317L29.5887 95.0522ZM38.2696 109.324L39.5512 108.545H39.5512L38.2696 109.324ZM39.1471 109.276L37.7876 108.642L37.7876 108.642L39.1471 109.276ZM12.0476 96.6392L13.4071 97.2732H13.4071L12.0476 96.6392ZM96.3462 87.5186C96.6963 88.2694 97.5887 88.5943 98.3395 88.2441C99.0903 87.894 99.4152 87.0016 99.0651 86.2508L96.3462 87.5186ZM82.7966 93.837C83.1467 94.5878 84.0391 94.9126 84.7899 94.5625C85.5407 94.2124 85.8656 93.3199 85.5155 92.5691L82.7966 93.837ZM36.4845 92.5691C36.1344 93.3199 36.4593 94.2124 37.2101 94.5625C37.9609 94.9126 38.8533 94.5878 39.2035 93.837L36.4845 92.5691ZM22.9349 86.2508C22.5848 87.0016 22.9097 87.894 23.6605 88.2441C24.4113 88.5943 25.3037 88.2694 25.6539 87.5186L22.9349 86.2508ZM109.652 95.8597L93.139 93.3358L92.6858 96.3013L109.199 98.8252L109.652 95.8597ZM91.1298 94.2727L82.4488 108.545L85.0119 110.104L93.6929 95.8317L91.1298 94.2727ZM93.139 93.3358C92.3415 93.2139 91.549 93.5835 91.1298 94.2727L93.6929 95.8317C93.4827 96.1772 93.0855 96.3624 92.6857 96.3013L93.139 93.3358ZM82.4488 108.545C82.8645 107.861 83.8743 107.917 84.2124 108.642L81.4935 109.91C82.168 111.356 84.1825 111.467 85.0119 110.104L82.4488 108.545ZM109.199 98.8252C110.777 99.0664 111.986 97.4518 111.312 96.0053L108.593 97.2732C108.255 96.5481 108.861 95.7388 109.652 95.8597L109.199 98.8252ZM12.8012 98.8252L29.3143 96.3013L28.861 93.3358L12.3479 95.8597L12.8012 98.8252ZM28.3071 95.8317L36.9881 110.104L39.5512 108.545L30.8702 94.2727L28.3071 95.8317ZM29.3143 96.3013C28.9145 96.3624 28.5173 96.1772 28.3071 95.8317L30.8702 94.2727C30.451 93.5834 29.6584 93.2139 28.861 93.3358L29.3143 96.3013ZM36.9881 110.104C37.8175 111.467 39.832 111.356 40.5065 109.91L37.7876 108.642C38.1257 107.917 39.1355 107.861 39.5512 108.545L36.9881 110.104ZM12.3479 95.8597C13.1388 95.7388 13.7452 96.5481 13.4071 97.2732L10.6881 96.0053C10.0136 97.4518 11.2234 99.0664 12.8012 98.8252L12.3479 95.8597ZM84.2124 108.642L75.6902 90.3661L72.9713 91.6339L81.4935 109.91L84.2124 108.642ZM85.5155 92.5691L82.8561 86.8661L80.1372 88.1339L82.7966 93.837L85.5155 92.5691ZM85.737 83.6339L91.2259 95.405L93.9448 94.1371L88.4559 82.3661L85.737 83.6339ZM99.0651 86.2508L94.2718 75.9716L91.5529 77.2395L96.3462 87.5186L99.0651 86.2508ZM95.9377 70.1339L108.593 97.2732L111.312 96.0053L98.6566 68.8661L95.9377 70.1339ZM40.5065 109.91L49.0287 91.6339L46.3098 90.3661L37.7876 108.642L40.5065 109.91ZM39.2035 93.837L41.8628 88.1339L39.1439 86.8661L36.4845 92.5691L39.2035 93.837ZM33.5441 82.3661L28.0552 94.1371L30.7741 95.405L36.2631 83.6339L33.5441 82.3661ZM25.6539 87.5186L30.4471 77.2395L27.7282 75.9716L22.9349 86.2508L25.6539 87.5186ZM23.3434 68.8661L10.6881 96.0053L13.4071 97.2732L26.0623 70.1339L23.3434 68.8661Z" fill="#F0F4F7"/>
<g id="Group 6269853">
<path id="Vector_2" d="M100.5 53C100.5 60.8124 98.1834 68.4493 93.8431 74.945C89.5027 81.4408 83.3337 86.5036 76.116 89.4932C68.8983 92.4829 60.9562 93.2651 53.2939 91.741C45.6317 90.2169 38.5935 86.4549 33.0693 80.9307C27.5451 75.4065 23.7831 68.3683 22.259 60.7061C20.7349 53.0438 21.5171 45.1017 24.5068 37.884C27.4964 30.6663 32.5592 24.4973 39.055 20.1569C45.5507 15.8166 53.1877 13.5 61 13.5C71.4761 13.5 81.523 17.6616 88.9307 25.0693C96.3384 32.477 100.5 42.5239 100.5 53Z" stroke="#F0F4F7" stroke-width="3" stroke-linejoin="round"/>
<path id="Vector_3" d="M93.5263 53V53.0008C93.5263 59.4362 91.6179 65.727 88.0424 71.0776C84.4669 76.4283 79.385 80.5985 73.4393 83.0608C67.4936 85.523 60.9513 86.1668 54.6398 84.9107C48.3282 83.6545 42.5309 80.5549 37.9811 76.0037C33.4312 71.4526 30.3332 65.6544 29.0789 59.3425C27.8245 53.0306 28.4702 46.4885 30.9341 40.5435C33.3981 34.5985 37.5698 29.5178 42.9215 25.9438C48.2731 22.3699 54.5645 20.4633 60.9999 20.4651L61.0007 20.4651C65.2732 20.4639 69.5039 21.3046 73.4513 22.9394C77.3986 24.5741 80.9851 26.9707 84.0058 29.9922C87.0264 33.0137 89.422 36.6009 91.0556 40.5487C92.6892 44.4965 93.5287 48.7275 93.5263 53Z" stroke="#F0F4F7" stroke-width="3" stroke-linejoin="round"/>
<path id="Vector_4" d="M58.2273 59.4798C58.0068 59.4988 57.791 59.5664 57.5963 59.6807C57.5547 59.7051 57.5144 59.7315 57.4756 59.7596C57.2952 59.356 56.939 59.0358 56.4779 58.9177C56.2813 58.8674 56.0737 58.8133 55.861 58.7578C55.5825 58.6852 55.2953 58.6103 55.0127 58.5387C55.3378 58.4785 55.6422 58.3488 55.9122 58.1536C56.3957 57.8041 56.6337 57.3421 56.7448 57.0661C56.7707 57.0018 56.7921 56.9359 56.8089 56.8687L58.0884 51.7388C58.2729 51.5689 58.417 51.3507 58.499 51.0962C58.6031 50.7731 58.5919 50.4391 58.4869 50.1401L59.3466 46.6913C59.3692 46.6006 59.3833 46.508 59.3887 46.4148C59.4135 45.9836 59.361 45.3657 58.9847 44.7727C58.9216 44.6733 58.8526 44.5795 58.7781 44.4914L58.2273 59.4798ZM58.2273 59.4798C58.0581 59.3608 57.9137 59.2069 57.805 59.0262C57.5998 58.685 57.5387 58.2763 57.6351 57.89L58.8769 52.9119C58.9732 52.5258 59.2189 52.1939 59.5599 51.989C59.6089 51.9596 59.6592 51.9332 59.7107 51.9098L58.2273 59.4798ZM65.0908 49.9776C65.1821 49.9333 65.2458 49.8894 65.2945 49.695L65.0908 49.9776ZM65.0908 49.9776C64.9273 50.0571 64.6174 50.1234 64.1198 50.1052M65.0908 49.9776L64.1198 50.1052M64.1198 50.1052C63.6524 50.088 63.1731 50.0078 62.7177 49.9077M64.1198 50.1052L62.7177 49.9077M62.7177 49.9077L63.124 48.2781C63.5791 48.3963 64.044 48.5423 64.4755 48.746C64.9195 48.9555 65.1519 49.1532 65.2523 49.2932C65.3053 49.3672 65.3551 49.4511 65.2946 49.6944L62.7177 49.9077ZM65.7118 39.1638C65.3708 39.0788 65.0281 39.1179 64.731 39.2524C64.5258 38.9865 64.2358 38.7957 63.9066 38.7136L61.6465 38.15C60.8428 37.9496 60.0288 38.4386 59.8282 39.2423L59.2625 41.5089L56.16 40.7342C55.7739 40.6378 55.3653 40.6988 55.0241 40.9038C54.683 41.1087 54.4373 41.4408 54.3411 41.827L53.7395 44.2423C53.6422 44.6331 53.7061 45.0466 53.9168 45.3898C54.1275 45.733 54.4674 45.977 54.86 46.067C54.86 46.067 54.86 46.067 54.86 46.067L54.86 46.067L54.8602 46.067L54.861 46.0672L54.8643 46.068L54.8779 46.0711L54.9301 46.0831L55.1171 46.1264C55.2722 46.1624 55.4777 46.2105 55.6811 46.2591C55.8868 46.3082 56.082 46.3558 56.2201 46.3916C56.249 46.399 56.2726 46.4053 56.2913 46.4103C56.3015 46.4143 56.3117 46.4181 56.322 46.4219L55.3807 50.1979C55.3789 50.205 55.3772 50.212 55.3756 50.2191L54.0716 55.4471C54.009 55.4311 53.9441 55.4145 53.8782 55.3975C53.6747 55.345 53.4698 55.2914 53.3153 55.2507L53.1289 55.2015L53.0769 55.1877L53.0634 55.1841L53.06 55.1832L53.0592 55.183L53.059 55.1829L53.0589 55.1829C52.3416 54.9922 51.5926 55.3547 51.2973 56.0357L50.1746 58.6243C49.9992 59.0288 50.0106 59.4899 50.2058 59.8852C50.401 60.2805 50.7602 60.57 51.188 60.6766L54.129 61.4098C54.1293 61.4098 54.1297 61.4099 54.13 61.41C54.1841 61.4236 54.2378 61.4371 54.291 61.4506L53.7144 63.7659C53.5142 64.5696 54.0033 65.3833 54.8068 65.5838L57.0656 66.1474C57.3949 66.2296 57.7405 66.1972 58.0467 66.0588C58.252 66.3248 58.542 66.5156 58.8714 66.5977L61.1328 67.1613C61.9364 67.3616 62.7503 66.8726 62.9509 66.069L63.5535 63.654C65.0578 63.8455 66.5314 63.8498 67.849 63.4443C69.71 62.8717 71.0724 61.5447 71.8235 59.3984C72.3985 57.7566 72.4577 56.2387 71.8725 54.9022C71.6658 54.43 71.3931 54.0139 71.0737 53.6458C71.1556 53.5697 71.2357 53.4899 71.3136 53.4062C72.0595 52.606 72.5171 51.5614 72.701 50.319C72.9791 48.4577 72.3849 46.936 71.2403 45.7821C70.4784 45.0141 69.5009 44.4349 68.4594 43.9784L69.0659 41.5457C69.1621 41.1597 69.1011 40.7512 68.8961 40.4102C68.6912 40.0692 68.3592 39.8236 67.9732 39.7274L65.7118 39.1638ZM62.3456 60.4574C62.0343 60.4751 61.7407 60.5898 61.5025 60.7774C61.4843 60.7406 61.4645 60.7044 61.4432 60.669C61.3522 60.5175 61.236 60.3849 61.1012 60.2759C61.5032 60.3514 61.9247 60.4164 62.3456 60.4574ZM62.7513 60.4892C62.7693 60.4902 62.7873 60.4912 62.8052 60.4921C63.6357 60.5354 64.6094 60.48 65.4834 60.0989C66.4351 59.6838 67.2082 58.9019 67.5059 57.7066L62.7513 60.4892ZM64.595 56.9807L64.5949 56.9814C64.543 57.1898 64.4632 57.2709 64.2841 57.349C64.027 57.4612 63.5918 57.529 62.9613 57.4962C62.2712 57.4603 61.5567 57.3221 60.907 57.1684L61.4304 55.0703C62.0833 55.2303 62.7825 55.431 63.4202 55.7204C63.9893 55.9787 64.3319 56.2362 64.4989 56.4499C64.6112 56.5936 64.6602 56.7192 64.595 56.9807Z" stroke="#F0F4F7" stroke-width="3" stroke-linejoin="round"/>
</g>
</g>
</svg>
