<svg width="122" height="122" viewBox="0 0 122 122" fill="none" xmlns="http://www.w3.org/2000/svg">
<path d="M109.425 97.3425L109.652 95.8597L109.652 95.8597L109.425 97.3425ZM92.9124 94.8186L92.6857 96.3013L92.6858 96.3013L92.9124 94.8186ZM92.4113 95.0522L91.1298 94.2727L91.1298 94.2727L92.4113 95.0522ZM83.7304 109.324L82.4488 108.545L83.7304 109.324ZM82.8529 109.276L84.2124 108.642L84.2124 108.642L82.8529 109.276ZM109.952 96.6392L111.312 96.0053V96.0053L109.952 96.6392ZM12.5746 97.3425L12.3479 95.8597L12.3479 95.8597L12.5746 97.3425ZM29.0876 94.8186L29.3143 96.3013L29.3143 96.3013L29.0876 94.8186ZM29.5887 95.0522L28.3071 95.8317L28.3071 95.8317L29.5887 95.0522ZM38.2696 109.324L39.5512 108.545H39.5512L38.2696 109.324ZM39.1471 109.276L37.7876 108.642L37.7876 108.642L39.1471 109.276ZM12.0476 96.6392L13.4071 97.2732H13.4071L12.0476 96.6392ZM96.3462 87.5186C96.6963 88.2694 97.5887 88.5943 98.3395 88.2441C99.0903 87.894 99.4152 87.0016 99.0651 86.2508L96.3462 87.5186ZM82.7966 93.837C83.1467 94.5878 84.0391 94.9126 84.7899 94.5625C85.5407 94.2124 85.8656 93.3199 85.5155 92.5691L82.7966 93.837ZM36.4845 92.5691C36.1344 93.3199 36.4593 94.2124 37.2101 94.5625C37.9609 94.9126 38.8533 94.5878 39.2035 93.837L36.4845 92.5691ZM22.9349 86.2508C22.5848 87.0016 22.9097 87.894 23.6605 88.2441C24.4113 88.5943 25.3037 88.2694 25.6539 87.5186L22.9349 86.2508ZM109.652 95.8597L93.139 93.3358L92.6858 96.3013L109.199 98.8252L109.652 95.8597ZM91.1298 94.2727L82.4488 108.545L85.0119 110.104L93.6929 95.8317L91.1298 94.2727ZM93.139 93.3358C92.3415 93.2139 91.549 93.5835 91.1298 94.2727L93.6929 95.8317C93.4827 96.1772 93.0855 96.3624 92.6857 96.3013L93.139 93.3358ZM82.4488 108.545C82.8645 107.861 83.8743 107.917 84.2124 108.642L81.4935 109.91C82.168 111.356 84.1825 111.467 85.0119 110.104L82.4488 108.545ZM109.199 98.8252C110.777 99.0664 111.986 97.4518 111.312 96.0053L108.593 97.2732C108.255 96.5481 108.861 95.7388 109.652 95.8597L109.199 98.8252ZM12.8012 98.8252L29.3143 96.3013L28.861 93.3358L12.3479 95.8597L12.8012 98.8252ZM28.3071 95.8317L36.9881 110.104L39.5512 108.545L30.8702 94.2727L28.3071 95.8317ZM29.3143 96.3013C28.9145 96.3624 28.5173 96.1772 28.3071 95.8317L30.8702 94.2727C30.451 93.5834 29.6584 93.2139 28.861 93.3358L29.3143 96.3013ZM36.9881 110.104C37.8175 111.467 39.832 111.356 40.5065 109.91L37.7876 108.642C38.1257 107.917 39.1355 107.861 39.5512 108.545L36.9881 110.104ZM12.3479 95.8597C13.1388 95.7388 13.7452 96.5481 13.4071 97.2732L10.6881 96.0053C10.0136 97.4518 11.2234 99.0664 12.8012 98.8252L12.3479 95.8597ZM84.2124 108.642L75.6902 90.3661L72.9713 91.6339L81.4935 109.91L84.2124 108.642ZM85.5155 92.5691L82.8561 86.8661L80.1372 88.1339L82.7966 93.837L85.5155 92.5691ZM85.737 83.6339L91.2259 95.405L93.9448 94.1371L88.4559 82.3661L85.737 83.6339ZM99.0651 86.2508L94.2718 75.9716L91.5529 77.2395L96.3462 87.5186L99.0651 86.2508ZM95.9377 70.1339L108.593 97.2732L111.312 96.0053L98.6566 68.8661L95.9377 70.1339ZM40.5065 109.91L49.0287 91.6339L46.3098 90.3661L37.7876 108.642L40.5065 109.91ZM39.2035 93.837L41.8628 88.1339L39.1439 86.8661L36.4845 92.5691L39.2035 93.837ZM33.5441 82.3661L28.0552 94.1371L30.7741 95.405L36.2631 83.6339L33.5441 82.3661ZM25.6539 87.5186L30.4471 77.2395L27.7282 75.9716L22.9349 86.2508L25.6539 87.5186ZM23.3434 68.8661L10.6881 96.0053L13.4071 97.2732L26.0623 70.1339L23.3434 68.8661Z" fill="#F0F4F7"/>
<path d="M100.5 53C100.5 60.8124 98.1834 68.4493 93.8431 74.945C89.5027 81.4408 83.3337 86.5036 76.116 89.4932C68.8983 92.4829 60.9562 93.2651 53.2939 91.741C45.6317 90.2169 38.5935 86.4549 33.0693 80.9307C27.5451 75.4065 23.7831 68.3683 22.259 60.7061C20.7349 53.0438 21.5171 45.1017 24.5068 37.884C27.4964 30.6663 32.5592 24.4973 39.055 20.1569C45.5507 15.8166 53.1877 13.5 61 13.5C71.4761 13.5 81.523 17.6616 88.9307 25.0693C96.3384 32.477 100.5 42.5239 100.5 53Z" stroke="#F0F4F7" stroke-width="3" stroke-linejoin="round"/>
<path d="M93.5263 53V53.0008C93.5263 59.4362 91.6179 65.727 88.0424 71.0776C84.4669 76.4283 79.385 80.5985 73.4393 83.0608C67.4936 85.523 60.9513 86.1668 54.6398 84.9107C48.3282 83.6545 42.5309 80.5549 37.9811 76.0037C33.4312 71.4526 30.3332 65.6544 29.0789 59.3425C27.8245 53.0306 28.4702 46.4885 30.9341 40.5435C33.3981 34.5985 37.5698 29.5178 42.9215 25.9438C48.2731 22.3699 54.5645 20.4633 60.9999 20.4651L61.0007 20.4651C65.2732 20.4639 69.5039 21.3046 73.4513 22.9394C77.3986 24.5741 80.9851 26.9707 84.0058 29.9922C87.0264 33.0137 89.422 36.6009 91.0556 40.5487C92.6892 44.4965 93.5287 48.7275 93.5263 53Z" stroke="#F0F4F7" stroke-width="3" stroke-linejoin="round"/>
<path d="M60.838 66.3564V77.7429L61.0208 78.2765L75.8675 57.3674M60.838 66.1335V78.2765L46 57.3674M61.1624 28L60.838 29.1017V61.0669L61.1624 61.3905L76 52.6199L61.1624 28ZM60.838 28L46 52.6199L60.838 61.3905V28Z" stroke="#F0F4F7" stroke-width="3" stroke-linecap="round" stroke-linejoin="round"/>
</svg>
