<svg width="122" height="122" viewBox="0 0 122 122" fill="none" xmlns="http://www.w3.org/2000/svg">
<path d="M54.7871 33.8936C54.7871 38.026 53.5617 42.0655 51.2659 45.5015C48.9701 48.9374 45.7069 51.6154 41.8891 53.1968C38.0713 54.7782 33.8703 55.1919 29.8174 54.3858C25.7644 53.5796 22.0415 51.5897 19.1195 48.6676C16.1975 45.7456 14.2075 42.0227 13.4014 37.9698C12.5952 33.9168 13.0089 29.7158 14.5903 25.898C16.1717 22.0802 18.8497 18.817 22.2856 16.5212C25.7216 14.2254 29.7611 13 33.8935 13C39.4348 13 44.7492 15.2013 48.6675 19.1196C52.5858 23.0379 54.7871 28.3523 54.7871 33.8936Z" stroke="#F0F4F7" stroke-width="2" stroke-linejoin="round"/>
<path d="M51.063 33.8937V33.8942C51.063 37.2913 50.0556 40.612 48.1682 43.4365C46.2808 46.261 43.5982 48.4623 40.4596 49.7621C37.3211 51.0619 33.8675 51.4017 30.5358 50.7386C27.2041 50.0755 24.1439 48.4393 21.7422 46.0369C19.3404 43.6345 17.7051 40.5738 17.0429 37.2419C16.3808 33.91 16.7216 30.4565 18.0223 27.3184C19.3229 24.1802 21.525 21.4982 24.3501 19.6116C27.1751 17.725 30.4961 16.7185 33.8932 16.7195L33.8937 16.7195C36.149 16.7188 38.3823 17.1627 40.466 18.0256C42.5497 18.8885 44.4429 20.1536 46.0374 21.7485C47.6319 23.3435 48.8965 25.2371 49.7588 27.321C50.6211 29.4049 51.0643 31.6384 51.063 33.8937Z" stroke="#F0F4F7" stroke-width="2" stroke-linejoin="round"/>
<path d="M35.9436 26.3199C36.106 26.2738 36.2822 26.2683 36.4576 26.312L37.6652 26.6129C37.9225 26.6771 38.1439 26.8408 38.2805 27.0682C38.4171 27.2955 38.4578 27.5678 38.3937 27.8252L38.11 28.9631C38.625 29.2029 39.1121 29.5051 39.503 29.8991C40.1564 30.5578 40.4969 31.4327 40.3384 32.492C40.2354 33.1867 39.9771 33.784 39.5464 34.2461C39.5445 34.2482 39.5426 34.2502 39.5407 34.2523C39.6732 34.4258 39.7888 34.6175 39.8816 34.8295C40.2201 35.6027 40.179 36.4677 39.861 37.376L35.9436 26.3199ZM35.9436 26.3199C35.8189 26.2004 35.6642 26.1141 35.4937 26.0716L34.2868 25.7707C33.751 25.6371 33.2083 25.9631 33.0746 26.4988L32.8208 27.5161M35.9436 26.3199L32.8208 27.5161M32.8208 27.5161L31.3571 27.1506C31.0997 27.0863 30.8273 27.127 30.5999 27.2636C30.3725 27.4003 30.2087 27.6217 30.1445 27.8792L29.8233 29.1689C29.7584 29.4294 29.801 29.7051 29.9415 29.9339C30.082 30.1627 30.3086 30.3254 30.5703 30.3853L32.8208 27.5161ZM30.5703 30.3853L30.5703 30.3853L30.5704 30.3853L30.5708 30.3854L30.5726 30.3859L30.5797 30.3875L30.6075 30.3939L30.707 30.4169C30.7896 30.4361 30.8989 30.4617 31.007 30.4875C31.0586 30.4998 31.1088 30.5119 31.1548 30.5232L30.6997 32.3491C30.6986 32.3533 30.6976 32.3575 30.6966 32.3617L30.0492 34.9575C29.9726 34.9376 29.8997 34.9185 29.8406 34.9029L29.7413 34.8767L29.7137 34.8694L29.7065 34.8675L29.7047 34.867L29.7043 34.8669L29.7042 34.8669L29.7041 34.8669C29.2259 34.7397 28.7266 34.9814 28.5297 35.4354L27.9302 36.8177C27.8133 37.0873 27.8209 37.3947 27.951 37.6583C28.0811 37.9218 28.3206 38.1148 28.6058 38.1859L30.0698 38.5508L29.8099 39.5943C29.6765 40.1301 30.0025 40.6726 30.5382 40.8063L31.7443 41.1072C31.915 41.1498 32.0921 41.1462 32.2585 41.0992C32.3832 41.2188 32.538 41.3052 32.7087 41.3477L33.9162 41.6486C34.452 41.7821 34.9946 41.4561 35.1283 40.9204L35.4076 39.8009C36.1675 39.8838 36.9222 39.8723 37.6093 39.6609C38.6695 39.3347 39.4411 38.5755 39.8609 37.3762L30.5703 30.3853ZM30.7538 29.2295C30.7873 29.1521 30.828 29.0853 30.8711 29.0281C30.8241 29.0906 30.7848 29.1582 30.7538 29.2295ZM29.3266 36.1112L29.3264 36.1116C29.3289 36.1539 29.334 36.1943 29.341 36.2324L29.3411 36.232C29.3338 36.192 29.329 36.1517 29.3266 36.1112ZM35.6201 35.971L35.6199 35.9715C35.6143 35.9943 35.6123 36.0049 35.6062 36.0123C35.6001 36.0197 35.5899 36.0237 35.5675 36.0335C35.4712 36.0755 35.2746 36.1126 34.9511 36.0957C34.6637 36.0807 34.3681 36.0313 34.0861 35.9703L34.268 35.2412C34.5492 35.3155 34.8362 35.4061 35.1036 35.5274C35.3948 35.6596 35.5444 35.7807 35.605 35.8583C35.6068 35.8606 35.6085 35.8627 35.6101 35.8647C35.6305 35.8903 35.6379 35.8995 35.6201 35.971ZM36.0022 32.0298C36.0017 32.039 35.9998 32.0554 35.9935 32.0805C35.9912 32.0898 35.989 32.097 35.9872 32.1024C35.9386 32.1245 35.8107 32.1578 35.5667 32.1488C35.397 32.1426 35.2244 32.12 35.0541 32.0887L35.1714 31.6182C35.3397 31.668 35.506 31.7271 35.6644 31.8019C35.8866 31.9068 35.9765 31.9941 36.0022 32.0298ZM35.9816 32.1156C35.9816 32.1156 35.9818 32.1151 35.9823 32.1143L35.9816 32.1156ZM36.0021 32.0207C36.0022 32.0207 36.0022 32.0212 36.0023 32.0224L36.0021 32.0207Z" stroke="#F0F4F7" stroke-width="2" stroke-linejoin="round"/>
<path d="M109 33.8936C109 38.026 107.775 42.0655 105.479 45.5015C103.183 48.9374 99.9198 51.6154 96.102 53.1968C92.2842 54.7782 88.0832 55.1919 84.0302 54.3858C79.9773 53.5796 76.2544 51.5897 73.3324 48.6676C70.4104 45.7456 68.4204 42.0227 67.6142 37.9698C66.8081 33.9168 67.2218 29.7158 68.8032 25.898C70.3846 22.0802 73.0626 18.817 76.4985 16.5212C79.9345 14.2254 83.974 13 88.1064 13C93.6477 13 98.9621 15.2013 102.88 19.1196C106.799 23.0379 109 28.3523 109 33.8936Z" stroke="#F0F4F7" stroke-width="2" stroke-linejoin="round"/>
<path d="M105.276 33.8934V33.894C105.276 37.291 104.269 40.6118 102.381 43.4363C100.494 46.2608 97.8111 48.4621 94.6725 49.7619C91.534 51.0616 88.0804 51.4015 84.7487 50.7384C81.417 50.0753 78.3568 48.4391 75.955 46.0366C73.5533 43.6342 71.9179 40.5735 71.2558 37.2416C70.5937 33.9097 70.9345 30.4563 72.2352 27.3181C73.5358 24.1799 75.7379 21.4979 78.5629 19.6113C81.388 17.7247 84.709 16.7183 88.1061 16.7192L88.1066 16.7192C90.3619 16.7186 92.5952 17.1624 94.6789 18.0253C96.7626 18.8882 98.6558 20.1533 100.25 21.7483C101.845 23.3433 103.109 25.2368 103.972 27.3208C104.834 29.4047 105.277 31.6381 105.276 33.8934Z" stroke="#F0F4F7" stroke-width="2" stroke-linejoin="round"/>
<path d="M88.0197 41.0259V47.1062L88.1173 47.3911L96.0453 36.2258M88.0197 40.9069V47.3911L80.0963 36.2258M88.1929 20.5439L88.0197 21.1322V38.2014L88.1929 38.3742L96.116 33.6907L88.1929 20.5439ZM88.0197 20.5439L80.0963 33.6907L88.0197 38.3742V20.5439Z" stroke="#F0F4F7" stroke-width="2" stroke-linecap="round" stroke-linejoin="round"/>
<path d="M54.7872 88.1063C54.7872 92.2386 53.5618 96.2782 51.266 99.7141C48.9702 103.15 45.7071 105.828 41.8893 107.409C38.0715 108.991 33.8704 109.405 29.8175 108.598C25.7645 107.792 22.0416 105.802 19.1196 102.88C16.1976 99.9583 14.2077 96.2354 13.4015 92.1824C12.5953 88.1294 13.009 83.9284 14.5904 80.1106C16.1718 76.2928 18.8498 73.0297 22.2858 70.7339C25.7217 68.438 29.7613 67.2126 33.8936 67.2126C39.435 67.2126 44.7493 69.4139 48.6676 73.3322C52.586 77.2506 54.7872 82.5649 54.7872 88.1063Z" stroke="#F0F4F7" stroke-width="2" stroke-linejoin="round"/>
<path d="M51.063 88.1061V88.1066C51.063 91.5037 50.0556 94.8244 48.1682 97.6489C46.2808 100.473 43.5982 102.675 40.4596 103.975C37.3211 105.274 33.8675 105.614 30.5358 104.951C27.2041 104.288 24.1439 102.652 21.7422 100.249C19.3404 97.8469 17.7051 94.7862 17.0429 91.4543C16.3808 88.1224 16.7216 84.6689 18.0223 81.5308C19.3229 78.3926 21.525 75.7106 24.35 73.824C27.1751 71.9374 30.4961 70.9309 33.8932 70.9319L33.8937 70.9319C36.149 70.9312 38.3823 71.3751 40.466 72.238C42.5497 73.1009 44.4429 74.366 46.0374 75.9609C47.6319 77.5559 48.8965 79.4495 49.7588 81.5334C50.6211 83.6173 51.0643 85.8508 51.063 88.1061Z" stroke="#F0F4F7" stroke-width="2" stroke-linejoin="round"/>
<path d="M44.2831 85.7988C43.2296 84.8261 41.7724 83.3408 40.5855 82.2873L40.5152 82.2381C40.3984 82.1443 40.2666 82.0707 40.1255 82.0204C37.2636 81.4867 23.9444 78.997 23.6845 79.0286C23.6117 79.0388 23.5421 79.0652 23.4809 79.1059L23.4141 79.1585C23.332 79.242 23.2696 79.3428 23.2315 79.4535L23.214 79.4992V79.7485V79.7871C24.7134 83.9623 30.6338 97.6397 31.7997 100.849C31.8699 101.067 32.0033 101.481 32.2526 101.502H32.3088C32.4423 101.502 33.0111 100.751 33.0111 100.751C33.0111 100.751 43.1805 88.4184 44.2094 87.1051C44.3425 86.9433 44.4601 86.7693 44.5605 86.5854C44.5861 86.4415 44.5741 86.2934 44.5254 86.1556C44.4768 86.0177 44.3933 85.8948 44.2831 85.7988ZM35.6202 87.235L39.9604 83.6357L42.5063 85.9814L35.6202 87.235ZM33.9347 86.9998L26.4621 80.8757L38.5523 83.1055L33.9347 86.9998ZM34.6089 88.6045L42.257 87.372L33.5133 97.9065L34.6089 88.6045ZM25.4473 81.4867L33.3096 88.1586L32.1719 97.9136L25.4473 81.4867Z" fill="#F0F4F7" stroke="#F0F4F7" stroke-width="0.5" stroke-linejoin="round"/>
<path d="M109 88.106C109 92.2384 107.775 96.278 105.479 99.7139C103.183 103.15 99.92 105.828 96.1022 107.409C92.2843 108.991 88.0833 109.404 84.0304 108.598C79.9774 107.792 76.2545 105.802 73.3325 102.88C70.4105 99.958 68.4206 96.2351 67.6144 92.1822C66.8082 88.1292 67.2219 83.9282 68.8033 80.1104C70.3847 76.2926 73.0627 73.0294 76.4986 70.7336C79.9346 68.4378 83.9742 67.2124 88.1065 67.2124C93.6478 67.2124 98.9622 69.4137 102.881 73.332C106.799 77.2503 109 82.5647 109 88.106Z" stroke="#F0F4F7" stroke-width="2" stroke-linejoin="round"/>
<path d="M105.276 88.1058V88.1064C105.276 91.5034 104.269 94.8242 102.381 97.6487C100.494 100.473 97.8111 102.674 94.6725 103.974C91.534 105.274 88.0804 105.614 84.7487 104.951C81.417 104.288 78.3568 102.651 75.955 100.249C73.5533 97.8466 71.9179 94.7859 71.2558 91.454C70.5937 88.1221 70.9345 84.6687 72.2352 81.5305C73.5358 78.3923 75.7379 75.7103 78.5629 73.8237C81.388 71.9371 84.709 70.9307 88.1061 70.9316L88.1066 70.9316C90.3619 70.931 92.5952 71.3748 94.6789 72.2377C96.7626 73.1006 98.6558 74.3657 100.25 75.9607C101.845 77.5557 103.109 79.4492 103.972 81.5332C104.834 83.6171 105.277 85.8505 105.276 88.1058Z" stroke="#F0F4F7" stroke-width="2" stroke-linejoin="round"/>
<path d="M78.4944 87.3425L84.6055 81.1641H94.5141V91.0937L88.4283 97.1838V87.3425H78.4944Z" stroke="#F0F4F7" stroke-width="2" stroke-linejoin="round"/>
</svg>
