<svg width="122" height="122" viewBox="0 0 122 122" fill="none" xmlns="http://www.w3.org/2000/svg">
<path d="M83.1059 81.1765V79.6765H81.6059L81.6059 81.1765L83.1059 81.1765ZM36.9882 81.1765L38.4882 81.1765L38.4882 79.6765H36.9882V81.1765ZM35.4884 96.1644L35.4884 97.6644L38.4884 97.6644L38.4884 96.1644L35.4884 96.1644ZM50.0178 90.4001C50.0178 89.5716 49.3462 88.9001 48.5178 88.9001C47.6893 88.9001 47.0178 89.5716 47.0178 90.4001H50.0178ZM47.0178 107.694C47.0178 108.523 47.6893 109.194 48.5178 109.194C49.3462 109.194 50.0178 108.523 50.0178 107.694H47.0178ZM73.0765 90.4001C73.0765 89.5716 72.4049 88.9001 71.5765 88.9001C70.7481 88.9001 70.0765 89.5716 70.0765 90.4001H73.0765ZM70.0765 107.694C70.0765 108.523 70.7481 109.194 71.5765 109.194C72.4049 109.194 73.0765 108.523 73.0765 107.694H70.0765ZM61.5471 92.7059C61.5471 91.8774 60.8755 91.2059 60.0471 91.2059C59.2187 91.2059 58.5471 91.8774 58.5471 92.7059H61.5471ZM58.5471 110C58.5471 110.828 59.2187 111.5 60.0471 111.5C60.8755 111.5 61.5471 110.828 61.5471 110H58.5471ZM81.606 96.1644L81.606 97.6644L84.606 97.6644L84.606 96.1644L81.606 96.1644ZM52.8984 76.8358L51.9165 75.7019L52.8984 76.8358ZM69.5014 76.8358L70.4834 75.7019L69.5014 76.8358ZM63.0329 71.234L62.051 72.3678L63.0329 71.234ZM59.3669 71.234L60.3489 72.3678L59.3669 71.234ZM98.9001 51.2V67.3412H101.9V51.2H98.9001ZM23.5 67.3412V51.2H20.5V67.3412H23.5ZM86.5648 79.6765H83.1059V82.6765H86.5648V79.6765ZM36.9882 79.6765H35.8353V82.6765H36.9882V79.6765ZM20.5 67.3412C20.5 75.8107 27.3659 82.6765 35.8353 82.6765V79.6765C29.0227 79.6765 23.5 74.1538 23.5 67.3412H20.5ZM98.9001 67.3412C98.9001 74.1538 93.3773 79.6765 86.5648 79.6765V82.6765C95.0342 82.6765 101.9 75.8107 101.9 67.3412H98.9001ZM61.2 13.5C82.0212 13.5 98.9001 30.3789 98.9001 51.2H101.9C101.9 28.722 83.678 10.5 61.2 10.5V13.5ZM61.2 10.5C38.722 10.5 20.5 28.722 20.5 51.2H23.5C23.5 30.3789 40.3789 13.5 61.2 13.5V10.5ZM45.0588 65.8414C39.5197 65.8414 35.0294 61.3511 35.0294 55.812H32.0294C32.0294 63.008 37.8628 68.8414 45.0588 68.8414V65.8414ZM55.0882 55.812C55.0882 61.3511 50.5979 65.8414 45.0588 65.8414V68.8414C52.2547 68.8414 58.0882 63.008 58.0882 55.812H55.0882ZM45.0588 45.7826C50.5979 45.7826 55.0882 50.2729 55.0882 55.812H58.0882C58.0882 48.6161 52.2547 42.7826 45.0588 42.7826V45.7826ZM45.0588 42.7826C37.8628 42.7826 32.0294 48.6161 32.0294 55.812H35.0294C35.0294 50.2729 39.5197 45.7826 45.0588 45.7826V42.7826ZM77.3411 65.8414C71.802 65.8414 67.3116 61.3511 67.3116 55.812H64.3116C64.3116 63.008 70.1451 68.8414 77.3411 68.8414V65.8414ZM87.3705 55.812C87.3705 61.3511 82.8802 65.8414 77.3411 65.8414V68.8414C84.537 68.8414 90.3705 63.008 90.3705 55.812H87.3705ZM77.3411 45.7826C82.8802 45.7826 87.3705 50.2729 87.3705 55.812H90.3705C90.3705 48.6161 84.537 42.7826 77.3411 42.7826V45.7826ZM77.3411 42.7826C70.1451 42.7826 64.3116 48.6161 64.3116 55.812H67.3116C67.3116 50.2729 71.802 45.7826 77.3411 45.7826V42.7826ZM35.4882 81.1765L35.4884 96.1644L38.4884 96.1644L38.4882 81.1765L35.4882 81.1765ZM47.0178 90.4001V107.694H50.0178V90.4001H47.0178ZM70.0765 90.4001V107.694H73.0765V90.4001H70.0765ZM58.5471 92.7059V110H61.5471V92.7059H58.5471ZM81.6059 81.1765L81.606 96.1644L84.606 96.1644L84.6059 81.1765L81.6059 81.1765ZM62.051 72.3678L68.5194 77.9697L70.4834 75.7019L64.0149 70.1001L62.051 72.3678ZM67.6684 80.2524H54.7315V83.2524H67.6684V80.2524ZM53.8804 77.9697L60.3489 72.3678L58.3849 70.1001L51.9165 75.7019L53.8804 77.9697ZM54.7315 80.2524C53.5278 80.2524 52.9705 78.7577 53.8804 77.9697L51.9165 75.7019C48.9069 78.3083 50.7502 83.2524 54.7315 83.2524V80.2524ZM68.5194 77.9697C69.4293 78.7577 68.872 80.2524 67.6684 80.2524V83.2524C71.6497 83.2524 73.4929 78.3083 70.4834 75.7019L68.5194 77.9697ZM64.0149 70.1001C62.3991 68.7007 60.0007 68.7007 58.3849 70.1001L60.3489 72.3678C60.8374 71.9448 61.5625 71.9448 62.051 72.3678L64.0149 70.1001Z" fill="#F0F4F7"/>
<path d="M12 110H37" stroke="#F0F4F7" stroke-width="3" stroke-linecap="square"/>
<path d="M85 110H110" stroke="#F0F4F7" stroke-width="3" stroke-linecap="square"/>
</svg>
