<svg width="122" height="122" viewBox="0 0 122 122" fill="none" xmlns="http://www.w3.org/2000/svg">
<path d="M12.145 53.6142L11.122 54.7113L11.122 54.7113L12.145 53.6142ZM13.5 31.3721C13.5 30.5437 12.8284 29.8721 12 29.8721C11.1716 29.8721 10.5 30.5437 10.5 31.3721H13.5ZM109.399 50.8369L110.422 49.7398L110.422 49.7398L109.399 50.8369ZM108.044 73.0791C108.044 73.9075 108.716 74.5791 109.544 74.5791C110.373 74.5791 111.044 73.9075 111.044 73.0791H108.044ZM92.9971 35.5431L94.0201 34.446L92.9971 35.5431ZM56.993 37.9814C56.993 42.1877 53.5831 45.5977 49.3767 45.5977V48.5977C55.24 48.5977 59.993 43.8446 59.993 37.9814H56.993ZM49.3767 45.5977C45.1704 45.5977 41.7605 42.1877 41.7605 37.9814H38.7605C38.7605 43.8446 43.5135 48.5977 49.3767 48.5977V45.5977ZM41.7605 37.9814C41.7605 33.775 45.1704 30.3651 49.3767 30.3651V27.3651C43.5135 27.3651 38.7605 32.1182 38.7605 37.9814H41.7605ZM49.3767 30.3651C53.5831 30.3651 56.993 33.775 56.993 37.9814H59.993C59.993 32.1182 55.24 27.3651 49.3767 27.3651V30.3651ZM77.9605 94.0465C77.9605 96.4907 75.9791 98.4721 73.5349 98.4721V101.472C77.6359 101.472 80.9605 98.1475 80.9605 94.0465H77.9605ZM73.5349 98.4721C71.0907 98.4721 69.1093 96.4907 69.1093 94.0465H66.1093C66.1093 98.1475 69.4338 101.472 73.5349 101.472V98.4721ZM69.1093 94.0465C69.1093 91.6023 71.0907 89.6209 73.5349 89.6209V86.6209C69.4338 86.6209 66.1093 89.9455 66.1093 94.0465H69.1093ZM73.5349 89.6209C75.9791 89.6209 77.9605 91.6023 77.9605 94.0465H80.9605C80.9605 89.9455 77.6359 86.6209 73.5349 86.6209V89.6209ZM82.9744 44.3628C82.9744 47.3104 80.5849 49.7 77.6372 49.7V52.7C82.2417 52.7 85.9744 48.9673 85.9744 44.3628H82.9744ZM77.6372 49.7C74.6895 49.7 72.3 47.3104 72.3 44.3628H69.3C69.3 48.9673 73.0327 52.7 77.6372 52.7V49.7ZM72.3 44.3628C72.3 41.4151 74.6895 39.0256 77.6372 39.0256V36.0256C73.0327 36.0256 69.3 39.7583 69.3 44.3628H72.3ZM77.6372 39.0256C80.5849 39.0256 82.9744 41.4151 82.9744 44.3628H85.9744C85.9744 39.7583 82.2417 36.0256 77.6372 36.0256V39.0256ZM50.6116 70.8C50.6116 72.7407 49.0384 74.314 47.0977 74.314V77.3139C50.6952 77.3139 53.6116 74.3976 53.6116 70.8H50.6116ZM47.0977 74.314C45.157 74.314 43.5837 72.7407 43.5837 70.8H40.5837C40.5837 74.3976 43.5001 77.3139 47.0977 77.3139V74.314ZM43.5837 70.8C43.5837 68.8593 45.157 67.286 47.0977 67.286V64.286C43.5001 64.286 40.5837 67.2024 40.5837 70.8H43.5837ZM47.0977 67.286C49.0384 67.286 50.6116 68.8593 50.6116 70.8H53.6116C53.6116 67.2024 50.6952 64.286 47.0977 64.286V67.286ZM64.7419 77.8651C64.7419 77.666 64.9032 77.5046 65.1023 77.5046V80.5046C66.5601 80.5046 67.7419 79.3229 67.7419 77.8651H64.7419ZM65.1023 77.5046C65.3014 77.5046 65.4628 77.666 65.4628 77.8651H62.4628C62.4628 79.3229 63.6446 80.5046 65.1023 80.5046V77.5046ZM65.4628 77.8651C65.4628 78.0642 65.3014 78.2256 65.1023 78.2256V75.2256C63.6446 75.2256 62.4628 76.4073 62.4628 77.8651H65.4628ZM65.1023 78.2256C64.9032 78.2256 64.7419 78.0642 64.7419 77.8651H67.7419C67.7419 76.4073 66.5601 75.2256 65.1023 75.2256V78.2256ZM67.0209 28.6372C67.0209 28.4381 67.1823 28.2767 67.3814 28.2767V31.2767C68.8392 31.2767 70.0209 30.095 70.0209 28.6372H67.0209ZM67.3814 28.2767C67.5805 28.2767 67.7419 28.4381 67.7419 28.6372H64.7419C64.7419 30.095 65.9236 31.2767 67.3814 31.2767V28.2767ZM67.7419 28.6372C67.7419 28.8363 67.5805 28.9977 67.3814 28.9977V25.9977C65.9236 25.9977 64.7419 27.1794 64.7419 28.6372H67.7419ZM67.3814 28.9977C67.1823 28.9977 67.0209 28.8363 67.0209 28.6372H70.0209C70.0209 27.1794 68.8392 25.9977 67.3814 25.9977V28.9977ZM43.3186 91.7674C43.3186 92.1977 42.9698 92.5465 42.5395 92.5465V95.5465C44.6267 95.5465 46.3186 93.8546 46.3186 91.7674H43.3186ZM42.5395 92.5465C42.1093 92.5465 41.7605 92.1977 41.7605 91.7674H38.7605C38.7605 93.8546 40.4524 95.5465 42.5395 95.5465V92.5465ZM41.7605 91.7674C41.7605 91.3372 42.1093 90.9884 42.5395 90.9884V87.9884C40.4524 87.9884 38.7605 89.6803 38.7605 91.7674H41.7605ZM42.5395 90.9884C42.9698 90.9884 43.3186 91.3372 43.3186 91.7674H46.3186C46.3186 89.6803 44.6267 87.9884 42.5395 87.9884V90.9884ZM23.7186 44.3628C23.7186 44.7931 23.3698 45.1419 22.9395 45.1419V48.1419C25.0267 48.1419 26.7186 46.4499 26.7186 44.3628H23.7186ZM22.9395 45.1419C22.5093 45.1419 22.1605 44.7931 22.1605 44.3628H19.1605C19.1605 46.4499 20.8524 48.1419 22.9395 48.1419V45.1419ZM22.1605 44.3628C22.1605 43.9325 22.5093 43.5837 22.9395 43.5837V40.5837C20.8524 40.5837 19.1605 42.2757 19.1605 44.3628H22.1605ZM22.9395 43.5837C23.3698 43.5837 23.7186 43.9325 23.7186 44.3628H26.7186C26.7186 42.2757 25.0267 40.5837 22.9395 40.5837V43.5837ZM82.0628 65.786C82.0628 66.2163 81.714 66.5651 81.2837 66.5651V69.5651C83.3708 69.5651 85.0628 67.8732 85.0628 65.786H82.0628ZM81.2837 66.5651C80.8535 66.5651 80.5046 66.2163 80.5046 65.786H77.5046C77.5046 67.8732 79.1966 69.5651 81.2837 69.5651V66.5651ZM80.5046 65.786C80.5046 65.3558 80.8535 65.007 81.2837 65.007V62.007C79.1966 62.007 77.5046 63.6989 77.5046 65.786H80.5046ZM81.2837 65.007C81.714 65.007 82.0628 65.3558 82.0628 65.786H85.0628C85.0628 63.6989 83.3708 62.007 81.2837 62.007V65.007ZM61.0953 58.2651C61.0953 58.066 61.2567 57.9047 61.4558 57.9047V60.9047C62.9136 60.9047 64.0953 59.7229 64.0953 58.2651H61.0953ZM61.4558 57.9047C61.6549 57.9047 61.8163 58.066 61.8163 58.2651H58.8163C58.8163 59.7229 59.998 60.9047 61.4558 60.9047V57.9047ZM61.8163 58.2651C61.8163 58.4642 61.6549 58.6256 61.4558 58.6256V55.6256C59.998 55.6256 58.8163 56.8073 58.8163 58.2651H61.8163ZM61.4558 58.6256C61.2567 58.6256 61.0953 58.4642 61.0953 58.2651H64.0953C64.0953 56.8073 62.9136 55.6256 61.4558 55.6256V58.6256ZM102.119 68.293C102.119 68.0939 102.28 67.9326 102.479 67.9326V70.9326C103.937 70.9326 105.119 69.7508 105.119 68.293H102.119ZM102.479 67.9326C102.678 67.9326 102.84 68.0939 102.84 68.293H99.8395C99.8395 69.7508 101.021 70.9326 102.479 70.9326V67.9326ZM102.84 68.293C102.84 68.4921 102.678 68.6535 102.479 68.6535V65.6535C101.021 65.6535 99.8395 66.8352 99.8395 68.293H102.84ZM102.479 68.6535C102.28 68.6535 102.119 68.4921 102.119 68.293H105.119C105.119 66.8352 103.937 65.6535 102.479 65.6535V68.6535ZM11.122 54.7113L27.5241 70.0052L29.57 67.811L13.1679 52.5172L11.122 54.7113ZM10.5 31.3721V53.2809H13.5V31.3721H10.5ZM13.1679 52.5172C13.3797 52.7147 13.5 52.9913 13.5 53.2809H10.5C10.5 53.8233 10.7253 54.3414 11.122 54.7113L13.1679 52.5172ZM110.422 49.7398L94.0201 34.446L91.9742 36.6401L108.376 51.934L110.422 49.7398ZM111.044 73.0791V51.1703H108.044V73.0791H111.044ZM108.376 51.934C108.164 51.7365 108.044 51.4599 108.044 51.1703H111.044C111.044 50.6278 110.819 50.1098 110.422 49.7398L108.376 51.934ZM30.3651 91.7674V69.6395H27.3651V91.7674H30.3651ZM30.3651 35.2465V30.2326H27.3651V35.2465H30.3651ZM27.3651 91.7674C27.3651 102.665 36.1997 111.5 47.0977 111.5V108.5C37.8565 108.5 30.3651 101.009 30.3651 91.7674H27.3651ZM30.3651 30.2326C30.3651 20.9914 37.8565 13.5 47.0977 13.5V10.5C36.1997 10.5 27.3651 19.3346 27.3651 30.2326H30.3651ZM94.1791 91.7674V69.2047H91.1791V91.7674H94.1791ZM94.1791 34.8117V30.2326H91.1791V34.8117H94.1791ZM91.1791 91.7674C91.1791 101.009 83.6876 108.5 74.4465 108.5V111.5C85.3445 111.5 94.1791 102.665 94.1791 91.7674H91.1791ZM94.1791 30.2326C94.1791 19.3346 85.3445 10.5 74.4465 10.5V13.5C83.6876 13.5 91.1791 20.9914 91.1791 30.2326H94.1791ZM74.4465 108.5H47.0977V111.5H74.4465V108.5ZM47.0977 13.5H74.4465V10.5H47.0977V13.5ZM94.0201 34.446C94.1215 34.5406 94.1791 34.673 94.1791 34.8117H91.1791C91.1791 35.505 91.467 36.1673 91.9742 36.6401L94.0201 34.446ZM27.5241 70.0052C27.4227 69.9106 27.3651 69.7782 27.3651 69.6395H30.3651C30.3651 68.9461 30.0772 68.2839 29.57 67.811L27.5241 70.0052Z" fill="#F0F4F7"/>
</svg>
