<svg width="122" height="122" viewBox="0 0 122 122" fill="none" xmlns="http://www.w3.org/2000/svg">
<path d="M109.095 39.477L62.2797 86.2929M109.095 39.477L110 45.8088M109.095 39.477L102.764 38.5725M12.9045 83.4089L60.8448 35.4686M12.9045 83.4089L12 77.0772M12.9045 83.4089L19.2363 84.3134M62.2793 25.6253V97.2606M82.2433 98.9672C84.741 101.465 84.741 105.515 82.2433 108.013C79.7455 110.51 75.6957 110.51 73.1979 108.013C70.7001 105.515 70.7001 101.465 73.1979 98.9672C75.6957 96.4694 79.7455 96.4694 82.2433 98.9672ZM94.9067 86.3038C97.4045 88.8016 97.4045 92.8513 94.9067 95.3491C92.4089 97.8469 88.3592 97.8469 85.8614 95.3491C83.3636 92.8513 83.3636 88.8016 85.8614 86.3038C88.3592 83.806 92.4089 83.806 94.9067 86.3038ZM107.57 73.6403C110.068 76.1381 110.068 80.1878 107.57 82.6856C105.072 85.1834 101.023 85.1834 98.5249 82.6856C96.0271 80.1878 96.0271 76.1381 98.5249 73.6403C101.023 71.1425 105.072 71.1425 107.57 73.6403ZM39.7568 23.9187C37.259 21.4209 37.259 17.3711 39.7568 14.8733C42.2546 12.3756 46.3043 12.3756 48.8021 14.8733C51.2999 17.3711 51.2999 21.4209 48.8021 23.9187C46.3043 26.4165 42.2546 26.4165 39.7568 23.9187ZM27.0933 36.5821C24.5955 34.0843 24.5955 30.0346 27.0933 27.5368C29.5911 25.039 33.6408 25.039 36.1386 27.5368C38.6364 30.0346 38.6364 34.0843 36.1386 36.5821C33.6408 39.0799 29.5911 39.0799 27.0933 36.5821ZM14.4298 49.2456C11.932 46.7478 11.932 42.6981 14.4298 40.2003C16.9276 37.7025 20.9774 37.7025 23.4752 40.2003C25.973 42.6981 25.973 46.7478 23.4752 49.2456C20.9774 51.7434 16.9276 51.7434 14.4298 49.2456Z" stroke="#F0F4F7" stroke-width="3" stroke-linecap="round" stroke-linejoin="round"/>
</svg>
